<svg width="510" height="135" viewBox="0 0 510 135" fill="none" xmlns="http://www.w3.org/2000/svg">
<g clip-path="url(#clip0_2434_15277)">
<path d="M362.98 10.7649C336.258 10.7649 314.598 32.4249 314.598 59.1474C314.598 85.8699 336.258 107.53 362.98 107.53C389.703 107.53 411.363 85.8699 411.363 59.1474C411.363 32.4249 389.703 10.7649 362.98 10.7649ZM362.98 86.2974C347.98 86.2974 335.823 74.1399 335.823 59.1399C335.823 44.1399 347.98 31.9824 362.98 31.9824C377.98 31.9824 390.138 44.1399 390.138 59.1399C390.138 74.1399 377.98 86.2974 362.98 86.2974Z" fill="#000100"/>
<path d="M482.313 71.0875C492.918 65.9125 500.223 55.03 500.223 42.4375C500.223 25.465 486.948 11.59 470.215 10.63L470.253 10.5775H418.863V107.35H440.913V60.865L495.07 115.023L510.663 99.43L482.32 71.0875H482.313ZM468.363 54.5725H452.538L440.913 54.355V30.3025H468.363C475.06 30.3025 480.498 35.7325 480.498 42.4375C480.498 49.1425 475.068 54.5725 468.363 54.5725Z" fill="#000100"/>
<path d="M285.055 43.2249V74.4774C285.055 80.5374 280.143 85.4499 274.083 85.4499C268.023 85.4499 263.11 80.5374 263.11 74.4774V43.2174C263.11 43.2174 263.103 43.2174 263.095 43.2174V10.6674H241.045V76.1499H241.09C242.013 93.5649 256.428 107.402 274.075 107.402C291.723 107.402 306.13 93.5649 307.06 76.1499H307.105V10.6749H285.055V43.2249Z" fill="#000100"/>
<path d="M233.478 59.1399C233.478 32.4174 211.818 10.7574 185.095 10.7574C158.373 10.7574 136.713 32.4174 136.713 59.1399C136.713 85.8624 158.373 107.522 185.095 107.522C194.403 107.522 203.095 104.89 210.468 100.337L225.138 115.007L240.73 99.4149L226.113 84.7974C230.778 77.3574 233.478 68.5599 233.478 59.1324V59.1399ZM185.095 86.2974C170.095 86.2974 157.938 74.1399 157.938 59.1399C157.938 44.1399 170.095 31.9824 185.095 31.9824C200.095 31.9824 212.253 44.1399 212.253 59.1399C212.253 62.6424 211.585 65.9949 210.378 69.0699L200.178 58.8699L184.585 74.4624L194.68 84.5574C191.695 85.6824 188.47 86.2974 185.088 86.2974H185.095Z" fill="#000100"/>
<path d="M108.58 112.472C108.58 112.472 91.6301 106.045 81.3926 97.5325C84.0101 96.4375 87.1076 94.9225 90.2126 92.92C101.028 85.9525 106.795 76.45 106.9 65.44C106.96 58.9375 104.208 54.355 101.613 51.49C102.903 49.72 104.29 47.4175 105.348 44.6425C107.643 38.5975 108.685 29.305 101.103 18.8275C101.163 18.7225 101.208 18.64 101.23 18.595L101.17 18.565C101.763 17.7625 102.115 16.7725 102.115 15.7C102.115 13.045 99.9626 10.8925 97.3076 10.8925C95.2076 10.8925 93.4226 12.235 92.7701 14.1175C91.6151 15.94 89.6351 16.075 86.8976 14.5075C85.9301 13.9525 84.8651 13.285 83.7401 12.5725C74.7926 6.92497 61.2701 -1.61003 32.2751 5.05747L25.2176 6.67747L29.4776 12.535C30.5276 13.9825 31.5851 15.5125 32.4776 16.8625C24.6626 20.98 9.91008 30.6025 4.45758 46.7275L2.32758 53.0425H11.2601C7.93008 59.395 3.73008 70.3675 5.58258 82.945C5.58258 82.945 9.31008 79.9 15.9626 76.255C16.3826 81.5275 17.4701 87.2125 19.6001 93.0625L21.3326 97.81L28.9826 94.5325C31.3601 100.72 36.0101 109.33 44.7251 115.42C44.7251 115.42 45.0551 110.897 46.8701 104.005C52.9001 110.8 62.1626 118.705 74.8376 122.582C74.8376 122.582 73.9526 118.967 73.2851 112.802C85.0076 114.76 99.7676 116.057 108.58 112.465V112.472ZM93.5426 24.715C97.4126 30.1975 98.4101 35.65 96.5126 40.945C94.8926 45.475 91.7126 48.3475 91.7051 48.355L86.3726 52.855L92.4701 56.11C92.9126 56.38 97.3901 59.305 97.3301 65.3425C97.2551 73.0225 93.1826 79.54 85.2251 84.7375C80.6351 87.73 75.9626 89.455 73.6376 90.1975C71.7251 87.8425 70.4051 85.6675 69.5051 83.89C67.4651 79.855 67.1051 76.945 67.0751 76.645L66.7151 68.9725L55.8701 75.1525C52.6226 60.0625 59.1851 47.5525 59.2526 47.425L61.4726 43.345L57.4601 41.005C56.2001 40.27 53.9651 39.4525 51.7526 38.74C64.9076 16.645 76.1276 20.56 82.4876 23.0125C87.2576 25.6225 91.1051 25.3975 93.5426 24.715ZM29.0951 50.1925L32.0426 43.48H16.4801C24.5726 30.0925 40.7801 23.5 40.9601 23.425L45.3326 21.7L43.6826 17.2975C43.2701 16.1875 42.3851 14.635 41.3951 13.0525C50.8526 11.6125 58.0076 12.175 63.6926 13.6525C55.1201 17.335 47.5001 25.795 40.4276 39.4675L37.6901 44.7625L43.4576 46.2925C45.2576 46.7725 47.1176 47.3125 48.7076 47.8225C46.1276 54.91 42.8276 68.7325 48.5201 83.9875L50.4851 89.2525L59.2526 84.2575C60.6851 88.105 63.3026 93.16 68.0651 98.41C46.4051 99.64 39.7451 86.1025 39.4151 85.2625L37.9451 80.29L27.0851 84.94C22.2701 66.31 29.0201 50.35 29.0951 50.1925Z" fill="#000100"/>
<path d="M51.7606 38.7473C53.9731 39.4598 56.2081 40.2773 57.4681 41.0123L61.4806 43.3523L59.2606 47.4323C59.1931 47.5598 52.6306 60.0698 55.8781 75.1598L66.7231 68.9798L67.0831 76.6523C67.1131 76.9523 67.4806 79.8623 69.5131 83.8973C70.4131 85.6748 71.7331 87.8498 73.6456 90.2048C75.9781 89.4548 80.6506 87.7373 85.2331 84.7448C93.1906 79.5548 97.2631 73.0298 97.3381 65.3498C97.3981 59.3123 92.9206 56.3873 92.4781 56.1173L86.3806 52.8623L91.7131 48.3623C91.7131 48.3623 94.9006 45.4748 96.5206 40.9523C98.4181 35.6573 97.4206 30.2048 93.5506 24.7223C91.1131 25.4048 87.2656 25.6298 82.4956 23.0198C76.1356 20.5673 64.9156 16.6523 51.7606 38.7473Z" fill="#FED482"/>
<path d="M68.0654 98.4099C63.3029 93.1599 60.6854 88.1048 59.2529 84.2573L50.4854 89.2523L48.5204 83.9873C42.8204 68.7323 46.1204 54.9099 48.7079 47.8224C47.1179 47.3199 45.2579 46.7723 43.4579 46.2923L37.6904 44.7623L40.4279 39.4674C47.5004 25.7949 55.1204 17.3349 63.6929 13.6524C58.0079 12.1749 50.8529 11.6123 41.3954 13.0523C42.3929 14.6423 43.2704 16.1949 43.6829 17.2974L45.3329 21.6998L40.9604 23.4249C40.7804 23.4999 24.5729 30.0923 16.4804 43.4798H32.0429L29.0954 50.1923C29.0279 50.3573 22.2779 66.3098 27.0854 84.9398L37.9454 80.2898L39.4154 85.2624C39.7454 86.1024 46.4054 99.6399 68.0654 98.4099Z" fill="#F7A500"/>
<path d="M32.0428 43.4798L29.0953 50.1923C29.0278 50.3573 22.2778 66.3098 27.0853 84.9398L37.9453 80.2898L39.4153 85.2623C39.7453 86.1023 46.4053 99.6398 68.0653 98.4098C63.3028 93.1598 60.6853 88.1048 59.2528 84.2573L50.4853 89.2523L48.5203 83.9873C48.3103 83.4248 48.1153 82.8698 47.9278 82.3073L39.7828 73.2923L30.7828 75.1448C25.7503 62.3348 37.7053 38.2898 37.7053 38.2898L17.4778 41.9273C17.1328 42.4373 16.7953 42.9623 16.4728 43.4948H32.0353L32.0428 43.4798Z" fill="#F08200"/>
<path d="M79.248 43.5849C84.086 43.5849 88.008 39.6629 88.008 34.8249C88.008 29.9869 84.086 26.0649 79.248 26.0649C74.41 26.0649 70.488 29.9869 70.488 34.8249C70.488 39.6629 74.41 43.5849 79.248 43.5849Z" fill="#000100"/>
<path d="M79.248 38.0798C81.0457 38.0798 82.503 36.6225 82.503 34.8248C82.503 33.0271 81.0457 31.5698 79.248 31.5698C77.4504 31.5698 75.993 33.0271 75.993 34.8248C75.993 36.6225 77.4504 38.0798 79.248 38.0798Z" fill="#F7A500"/>
</g>
<defs>
<clipPath id="clip0_2434_15277">
<rect width="510" height="120" fill="white"/>
</clipPath>
</defs>
</svg>
