<svg width="115" height="28" viewBox="0 0 115 28" fill="none" xmlns="http://www.w3.org/2000/svg">
<g clip-path="url(#clip0_1902_10301)">
<path d="M72.5964 2.15299C67.2519 2.15299 62.9199 6.48499 62.9199 11.8295C62.9199 17.174 67.2519 21.506 72.5964 21.506C77.9409 21.506 82.2729 17.174 82.2729 11.8295C82.2729 6.48499 77.9409 2.15299 72.5964 2.15299ZM72.5964 17.2595C69.5964 17.2595 67.1649 14.828 67.1649 11.828C67.1649 8.828 69.5964 6.39649 72.5964 6.39649C75.5964 6.39649 78.0279 8.828 78.0279 11.828C78.0279 14.828 75.5964 17.2595 72.5964 17.2595Z" fill="#000100"/>
<path d="M96.4625 14.2175C98.5835 13.1825 100.044 11.006 100.044 8.48751C100.044 5.09301 97.3895 2.31801 94.043 2.12601L94.0505 2.11551H83.7725V21.47H88.1825V12.173L99.014 23.0045L102.132 19.886L96.464 14.2175H96.4625ZM93.6725 10.9145H90.5075L88.1825 10.871V6.06051H93.6725C95.012 6.06051 96.0995 7.14651 96.0995 8.48751C96.0995 9.82851 95.0135 10.9145 93.6725 10.9145Z" fill="#000100"/>
<path d="M57.011 8.64499V14.8955C57.011 16.1075 56.0285 17.09 54.8165 17.09C53.6045 17.09 52.622 16.1075 52.622 14.8955V8.64349C52.622 8.64349 52.6205 8.64349 52.619 8.64349V2.13349H48.209V15.23H48.218C48.4025 18.713 51.2855 21.4805 54.815 21.4805C58.3445 21.4805 61.226 18.713 61.412 15.23H61.421V2.13499H57.011V8.64499Z" fill="#000100"/>
<path d="M46.6958 11.828C46.6958 6.4835 42.3638 2.1515 37.0193 2.1515C31.6748 2.1515 27.3428 6.4835 27.3428 11.828C27.3428 17.1725 31.6748 21.5045 37.0193 21.5045C38.8808 21.5045 40.6193 20.978 42.0938 20.0675L45.0278 23.0015L48.1463 19.883L45.2228 16.9595C46.1558 15.4715 46.6958 13.712 46.6958 11.8265V11.828ZM37.0193 17.2595C34.0193 17.2595 31.5878 14.828 31.5878 11.828C31.5878 8.828 34.0193 6.3965 37.0193 6.3965C40.0193 6.3965 42.4508 8.828 42.4508 11.828C42.4508 12.5285 42.3173 13.199 42.0758 13.814L40.0358 11.774L36.9173 14.8925L38.9363 16.9115C38.3393 17.1365 37.6943 17.2595 37.0178 17.2595H37.0193Z" fill="#000100"/>
<path d="M21.7163 22.4945C21.7163 22.4945 18.3263 21.209 16.2788 19.5065C16.8023 19.2875 17.4218 18.9845 18.0428 18.584C20.2058 17.1905 21.3593 15.29 21.3803 13.088C21.3923 11.7875 20.8418 10.871 20.3228 10.298C20.5808 9.94399 20.8583 9.48349 21.0698 8.92849C21.5288 7.71949 21.7373 5.86099 20.2208 3.76549C20.2328 3.74449 20.2418 3.72799 20.2463 3.71899L20.2343 3.71299C20.3528 3.55249 20.4233 3.35449 20.4233 3.13999C20.4233 2.60899 19.9928 2.17849 19.4618 2.17849C19.0418 2.17849 18.6848 2.44699 18.5543 2.82349C18.3233 3.18799 17.9273 3.21499 17.3798 2.90149C17.1863 2.79049 16.9733 2.65699 16.7483 2.51449C14.9588 1.38499 12.2543 -0.322007 6.45532 1.01149L5.04382 1.33549L5.89582 2.50699C6.10582 2.79649 6.31732 3.10249 6.49582 3.37249C4.93282 4.19599 1.98232 6.12049 0.891821 9.34549L0.46582 10.6085H2.25232C1.58632 11.879 0.746321 14.0735 1.11682 16.589C1.11682 16.589 1.86232 15.98 3.19282 15.251C3.27682 16.3055 3.49432 17.4425 3.92032 18.6125L4.26682 19.562L5.79682 18.9065C6.27232 20.144 7.20232 21.866 8.94532 23.084C8.94532 23.084 9.01132 22.1795 9.37432 20.801C10.5803 22.16 12.4328 23.741 14.9678 24.5165C14.9678 24.5165 14.7908 23.7935 14.6573 22.5605C17.0018 22.952 19.9538 23.2115 21.7163 22.493V22.4945ZM18.7088 4.94299C19.4828 6.03949 19.6823 7.12999 19.3028 8.18899C18.9788 9.09499 18.3428 9.66949 18.3413 9.67099L17.2748 10.571L18.4943 11.222C18.5828 11.276 19.4783 11.861 19.4663 13.0685C19.4513 14.6045 18.6368 15.908 17.0453 16.9475C16.1273 17.546 15.1928 17.891 14.7278 18.0395C14.3453 17.5685 14.0813 17.1335 13.9013 16.778C13.4933 15.971 13.4213 15.389 13.4153 15.329L13.3433 13.7945L11.1743 15.0305C10.5248 12.0125 11.8373 9.51049 11.8508 9.48499L12.2948 8.66899L11.4923 8.20099C11.2403 8.05399 10.7933 7.89049 10.3508 7.74799C12.9818 3.32899 15.2258 4.11199 16.4978 4.60249C17.4518 5.12449 18.2213 5.07949 18.7088 4.94299ZM5.81932 10.0385L6.40882 8.69599H3.29632C4.91482 6.01849 8.15632 4.69999 8.19232 4.68499L9.06682 4.33999L8.73682 3.45949C8.65432 3.23749 8.47732 2.92699 8.27932 2.61049C10.1708 2.32249 11.6018 2.43499 12.7388 2.73049C11.0243 3.46699 9.50032 5.15899 8.08582 7.89349L7.53832 8.95249L8.69182 9.25849C9.05182 9.35449 9.42382 9.46249 9.74182 9.56449C9.22582 10.982 8.56582 13.7465 9.70432 16.7975L10.0973 17.8505L11.8508 16.8515C12.1373 17.621 12.6608 18.632 13.6133 19.682C9.28132 19.928 7.94932 17.2205 7.88332 17.0525L7.58932 16.058L5.41732 16.988C4.45432 13.262 5.80432 10.07 5.81932 10.0385Z" fill="#000100"/>
<path d="M10.3525 7.74946C10.795 7.89196 11.242 8.05546 11.494 8.20246L12.2965 8.67046L11.8525 9.48646C11.839 9.51196 10.5265 12.014 11.176 15.032L13.345 13.796L13.417 15.3305C13.423 15.3905 13.4965 15.9725 13.903 16.7795C14.083 17.135 14.347 17.57 14.7295 18.041C15.196 17.891 16.1305 17.5475 17.047 16.949C18.6385 15.911 19.453 14.606 19.468 13.07C19.48 11.8625 18.5845 11.2775 18.496 11.2235L17.2765 10.5725L18.343 9.67246C18.343 9.67246 18.9805 9.09496 19.3045 8.19046C19.684 7.13146 19.4845 6.04096 18.7105 4.94446C18.223 5.08096 17.4535 5.12596 16.4995 4.60396C15.2275 4.11346 12.9835 3.33046 10.3525 7.74946Z" fill="#FED482"/>
<path d="M13.6139 19.682C12.6614 18.632 12.1379 17.621 11.8514 16.8515L10.0979 17.8505L9.70487 16.7975C8.56487 13.7465 9.22487 10.982 9.74237 9.56446C9.42438 9.46396 9.05237 9.35446 8.69237 9.25846L7.53887 8.95246L8.08638 7.89346C9.50088 5.15896 11.0249 3.46696 12.7394 2.73046C11.6024 2.43496 10.1714 2.32246 8.27987 2.61046C8.47937 2.92846 8.65488 3.23896 8.73738 3.45946L9.06737 4.33996L8.19287 4.68496C8.15687 4.69996 4.91537 6.01846 3.29688 8.69596H6.40937L5.81987 10.0385C5.80637 10.0715 4.45637 13.262 5.41787 16.988L7.58987 16.058L7.88387 17.0525C7.94987 17.2205 9.28187 19.928 13.6139 19.682Z" fill="#F7A500"/>
<path d="M6.40892 8.69596L5.81942 10.0385C5.80592 10.0715 4.45592 13.262 5.41742 16.988L7.58942 16.058L7.88342 17.0525C7.94942 17.2205 9.28142 19.928 13.6134 19.682C12.6609 18.632 12.1374 17.621 11.8509 16.8515L10.0974 17.8505L9.70442 16.7975C9.66242 16.685 9.62342 16.574 9.58592 16.4615L7.95692 14.6585L6.15692 15.029C5.15042 12.467 7.54142 7.65796 7.54142 7.65796L3.49592 8.38546C3.42692 8.48746 3.35942 8.59246 3.29492 8.69896H6.40742L6.40892 8.69596Z" fill="#F08200"/>
<path d="M15.8497 8.71697C16.8173 8.71697 17.6017 7.93258 17.6017 6.96497C17.6017 5.99737 16.8173 5.21297 15.8497 5.21297C14.8821 5.21297 14.0977 5.99737 14.0977 6.96497C14.0977 7.93258 14.8821 8.71697 15.8497 8.71697Z" fill="#000100"/>
<path d="M15.8502 7.61596C16.2098 7.61596 16.5012 7.3245 16.5012 6.96496C16.5012 6.60543 16.2098 6.31396 15.8502 6.31396C15.4907 6.31396 15.1992 6.60543 15.1992 6.96496C15.1992 7.3245 15.4907 7.61596 15.8502 7.61596Z" fill="#F7A500"/>
</g>
<defs>
<clipPath id="clip0_1902_10301">
<rect width="102" height="24" fill="white"/>
</clipPath>
</defs>
</svg>
