<svg width="115" height="28" viewBox="0 0 115 28" fill="none" xmlns="http://www.w3.org/2000/svg">
<g clip-path="url(#clip0_1902_6308)">
<path d="M81.1087 2.35938C75.0962 2.35938 70.2227 7.23288 70.2227 13.2454C70.2227 19.258 75.0962 24.1315 81.1087 24.1315C87.1213 24.1315 91.9948 19.258 91.9948 13.2454C91.9948 7.23288 87.1213 2.35938 81.1087 2.35938ZM81.1087 19.3542C77.7337 19.3542 74.9983 16.6188 74.9983 13.2438C74.9983 9.86875 77.7337 7.13331 81.1087 7.13331C84.4837 7.13331 87.2192 9.86875 87.2192 13.2438C87.2192 16.6188 84.4837 19.3542 81.1087 19.3542Z" fill="white"/>
<path d="M107.958 15.9321C110.344 14.7678 111.988 12.3192 111.988 9.48588C111.988 5.66707 109.001 2.5452 105.236 2.3292L105.244 2.31738H93.6816V24.0912H98.6429V13.6321L110.828 25.8175L114.337 22.3092L107.96 15.9321H107.958ZM104.819 12.2163H101.259L98.6429 12.1673V6.75551H104.819C106.326 6.75551 107.55 7.97726 107.55 9.48588C107.55 10.9945 106.328 12.2163 104.819 12.2163Z" fill="white"/>
<path d="M63.5751 9.66284V16.6947C63.5751 18.0582 62.4698 19.1635 61.1063 19.1635C59.7428 19.1635 58.6375 18.0582 58.6375 16.6947V9.66115C58.6375 9.66115 58.6358 9.66115 58.6341 9.66115V2.3374H53.6729V17.071H53.683C53.8905 20.9893 57.1339 24.1028 61.1046 24.1028C65.0753 24.1028 68.317 20.9893 68.5262 17.071H68.5364V2.33909H63.5751V9.66284Z" fill="white"/>
<path d="M51.9704 13.244C51.9704 7.23141 47.0969 2.35791 41.0843 2.35791C35.0717 2.35791 30.1982 7.23141 30.1982 13.244C30.1982 19.2565 35.0717 24.13 41.0843 24.13C43.1785 24.13 45.1343 23.5377 46.7931 22.5134L50.0939 25.8142L53.6022 22.3058L50.3132 19.0169C51.3629 17.3429 51.9704 15.3635 51.9704 13.2423V13.244ZM41.0843 19.3544C37.7093 19.3544 34.9739 16.619 34.9739 13.244C34.9739 9.86897 37.7093 7.13353 41.0843 7.13353C44.4593 7.13353 47.1947 9.86897 47.1947 13.244C47.1947 14.032 47.0446 14.7863 46.7729 15.4782L44.4779 13.1832L40.9696 16.6915L43.2409 18.9629C42.5693 19.216 41.8437 19.3544 41.0826 19.3544H41.0843Z" fill="white"/>
<path d="M23.8678 25.2437C23.8678 25.2437 20.054 23.7975 17.7506 21.8822C18.3395 21.6358 19.0364 21.295 19.7351 20.8444C22.1684 19.2767 23.4661 17.1387 23.4897 14.6614C23.5033 13.1983 22.8839 12.1673 22.3001 11.5227C22.5903 11.1244 22.9025 10.6063 23.1404 9.98197C23.6568 8.62184 23.8914 6.53103 22.1853 4.17359C22.1988 4.14997 22.2089 4.1314 22.214 4.12128L22.2005 4.11453C22.3338 3.93397 22.4131 3.71122 22.4131 3.4699C22.4131 2.87253 21.9288 2.38822 21.3314 2.38822C20.8589 2.38822 20.4573 2.69028 20.3105 3.11384C20.0506 3.5239 19.6051 3.55428 18.9892 3.20159C18.7715 3.07672 18.5319 2.92653 18.2788 2.76622C16.2656 1.49553 13.223 -0.424845 6.69913 1.07534L5.11119 1.43984L6.06969 2.75778C6.30594 3.08347 6.54388 3.42772 6.74469 3.73147C4.98631 4.65791 1.667 6.82297 0.440188 10.4511L-0.0390625 11.872H1.97075C1.2215 13.3013 0.276501 15.7701 0.693313 18.6C0.693313 18.6 1.532 17.9149 3.02881 17.0948C3.12331 18.2811 3.368 19.5602 3.84725 20.8765L4.23706 21.9447L5.95831 21.2072C6.49325 22.5994 7.5395 24.5367 9.50038 25.9069C9.50038 25.9069 9.57463 24.8893 9.983 23.3385C11.3398 24.8674 13.4238 26.646 16.2757 27.5185C16.2757 27.5185 16.0766 26.7051 15.9264 25.318C18.5639 25.7584 21.8849 26.0503 23.8678 25.242V25.2437ZM20.4843 5.49828C21.3551 6.73184 21.5795 7.95866 21.1526 9.15003C20.7881 10.1693 20.0726 10.8156 20.0709 10.8173L18.8711 11.8298L20.243 12.5622C20.3426 12.6229 21.35 13.281 21.3365 14.6395C21.3196 16.3675 20.4033 17.8339 18.6129 19.0033C17.5801 19.6767 16.5288 20.0648 16.0057 20.2318C15.5754 19.702 15.2784 19.2126 15.0759 18.8127C14.6169 17.9048 14.5359 17.25 14.5291 17.1825L14.4481 15.4562L12.008 16.8467C11.2773 13.4515 12.7539 10.6367 12.7691 10.608L13.2686 9.69003L12.3658 9.16353C12.0823 8.99815 11.5794 8.81422 11.0816 8.6539C14.0414 3.68253 16.5659 4.5634 17.9969 5.11522C19.0702 5.70247 19.9359 5.65184 20.4843 5.49828ZM5.98363 11.2307L6.64681 9.7204H3.14525C4.96606 6.70822 8.61275 5.22491 8.65325 5.20803L9.63706 4.8199L9.26581 3.82934C9.173 3.57959 8.97388 3.23028 8.75113 2.87422C10.8791 2.55022 12.4889 2.67678 13.7681 3.00922C11.8393 3.83778 10.1248 5.74128 8.53344 8.81759L7.9175 10.009L9.21519 10.3532C9.62019 10.4612 10.0387 10.5827 10.3964 10.6975C9.81594 12.2922 9.07344 15.4022 10.3543 18.8346L10.7964 20.0192L12.7691 18.8953C13.0914 19.761 13.6803 20.8984 14.7519 22.0797C9.87838 22.3564 8.37988 19.3105 8.30563 19.1215L7.97487 18.0027L5.53138 19.0489C4.448 14.8572 5.96675 11.2662 5.98363 11.2307Z" fill="white"/>
<path d="M11.083 8.6554C11.5808 8.81571 12.0837 8.99965 12.3672 9.16503L13.27 9.69153L12.7705 10.6095C12.7553 10.6382 11.2788 13.453 12.0094 16.8482L14.4496 15.4577L14.5306 17.184C14.5373 17.2515 14.62 17.9063 15.0773 18.8142C15.2798 19.2141 15.5768 19.7035 16.0071 20.2333C16.5319 20.0646 17.5833 19.6782 18.6143 19.0048C20.4048 17.8371 21.3211 16.369 21.3379 14.641C21.3514 13.2825 20.344 12.6244 20.2444 12.5637L18.8725 11.8313L20.0723 10.8188C20.0723 10.8188 20.7895 10.1691 21.154 9.15153C21.5809 7.96015 21.3565 6.73334 20.4858 5.49978C19.9373 5.65334 19.0716 5.70396 17.9984 5.11671C16.5674 4.5649 14.0429 3.68403 11.083 8.6554Z" fill="#131A26"/>
<path d="M14.7521 22.0797C13.6806 20.8984 13.0916 19.7611 12.7693 18.8954L10.7966 20.0192L10.3545 18.8346C9.07201 15.4022 9.81451 12.2922 10.3967 10.6975C10.0389 10.5844 9.62045 10.4612 9.21545 10.3532L7.91776 10.009L8.5337 8.81762C10.125 5.7413 11.8395 3.8378 13.7683 3.00924C12.4892 2.6768 10.8793 2.55024 8.75138 2.87424C8.97582 3.23199 9.17326 3.5813 9.26607 3.82937L9.63732 4.81993L8.65351 5.20805C8.61301 5.22493 4.96632 6.70824 3.14551 9.72043H6.64707L5.98388 11.2307C5.9687 11.2679 4.44995 14.8572 5.53163 19.0489L7.97513 18.0027L8.30588 19.1215C8.38013 19.3105 9.87863 22.3564 14.7521 22.0797Z" fill="#131A26"/>
<path d="M6.64681 9.72048L5.98362 11.2308C5.96843 11.2679 4.44968 14.8572 5.53137 19.049L7.97487 18.0027L8.30562 19.1215C8.37987 19.3105 9.87837 22.3565 14.7519 22.0797C13.6803 20.8985 13.0914 19.7611 12.7691 18.8954L10.7964 20.0193L10.3542 18.8347C10.307 18.7081 10.2631 18.5832 10.2209 18.4567L8.38831 16.4283L6.36331 16.8451C5.23099 13.9629 7.92087 8.55273 7.92087 8.55273L3.36968 9.37117C3.29206 9.48592 3.21612 9.60405 3.14355 9.72386H6.64512L6.64681 9.72048Z" fill="#131A26"/>
<path d="M17.2679 9.74376C18.3564 9.74376 19.2389 8.86131 19.2389 7.77276C19.2389 6.6842 18.3564 5.80176 17.2679 5.80176C16.1793 5.80176 15.2969 6.6842 15.2969 7.77276C15.2969 8.86131 16.1793 9.74376 17.2679 9.74376Z" fill="white"/>
</g>
<defs>
<clipPath id="clip0_1902_6308">
<rect width="114.412" height="27" fill="white" transform="translate(0 0.5)"/>
</clipPath>
</defs>
</svg>
